<?xml version="1.0" encoding="utf-8"?>
<!-- Generator: Adobe Illustrator 24.2.3, SVG Export Plug-In . SVG Version: 6.00 Build 0)  -->
<svg version="1.1" id="_x31_" xmlns="http://www.w3.org/2000/svg" xmlns:xlink="http://www.w3.org/1999/xlink" x="0px" y="0px"
	 viewBox="0 0 538 538" style="enable-background:new 0 0 538 538;" xml:space="preserve">
<style type="text/css">
	.st0{fill:#49B3FD;stroke:#49B3FD;stroke-width:5;stroke-miterlimit:10;}
</style>
<path class="st0" d="M429,525H109c-29.4,0-53.3-23.9-53.3-53.3V66.3C55.7,36.9,79.6,13,109,13h320c29.4,0,53.3,23.9,53.3,53.3v405.3
	C482.3,501.1,458.4,525,429,525z M109,34.3c-17.6,0-32,14.4-32,32v405.3c0,17.6,14.4,32,32,32h320c17.6,0,32-14.4,32-32V66.3
	c0-17.6-14.4-32-32-32H109z"/>
<path class="st0" d="M407.7,269H365c-5.9,0-10.7-4.8-10.7-10.7s4.8-10.7,10.7-10.7h42.7c5.9,0,10.7,4.8,10.7,10.7
	S413.6,269,407.7,269z"/>
<path class="st0" d="M407.7,205H365c-5.9,0-10.7-4.8-10.7-10.7s4.8-10.7,10.7-10.7h42.7c5.9,0,10.7,4.8,10.7,10.7
	S413.6,205,407.7,205z"/>
<path class="st0" d="M407.7,333H365c-5.9,0-10.7-4.8-10.7-10.7s4.8-10.7,10.7-10.7h42.7c5.9,0,10.7,4.8,10.7,10.7
	S413.6,333,407.7,333z"/>
<path class="st0" d="M407.7,397H365c-5.9,0-10.7-4.8-10.7-10.7s4.8-10.7,10.7-10.7h42.7c5.9,0,10.7,4.8,10.7,10.7
	S413.6,397,407.7,397z"/>
<path class="st0" d="M407.7,461H130.3c-5.9,0-10.7-4.8-10.7-10.7s4.8-10.7,10.7-10.7h277.3c5.9,0,10.7,4.8,10.7,10.7
	S413.6,461,407.7,461z"/>
<path class="st0" d="M226.3,397c-58.8,0-106.7-47.9-106.7-106.7s47.9-106.7,106.7-106.7S333,231.5,333,290.3S285.1,397,226.3,397z
	 M226.3,205c-47.1,0-85.3,38.3-85.3,85.3s38.3,85.3,85.3,85.3s85.3-38.3,85.3-85.3S273.4,205,226.3,205z"/>
<path class="st0" d="M158.5,368.9c-2.7,0-5.5-1-7.6-3.1c-4.2-4.2-4.2-10.9,0-15.1l64.8-64.8v-91.6c0-5.9,4.8-10.7,10.7-10.7
	s10.7,4.8,10.7,10.7v96c0,2.8-1.1,5.5-3.1,7.6L166,365.8C163.9,367.8,161.2,368.9,158.5,368.9z"/>
</svg>
