<?xml version="1.0" encoding="utf-8"?>
<!-- Generator: Adobe Illustrator 24.2.3, SVG Export Plug-In . SVG Version: 6.00 Build 0)  -->
<svg version="1.1" id="Capa_1" xmlns="http://www.w3.org/2000/svg" xmlns:xlink="http://www.w3.org/1999/xlink" x="0px" y="0px"
	 viewBox="0 0 446 446" style="enable-background:new 0 0 446 446;" xml:space="preserve">
<style type="text/css">
	.st0{fill:#49B3FD;stroke:#49B3FD;stroke-width:8;stroke-miterlimit:10;}
</style>
<g>
	<g>
		<rect x="135" y="294" class="st0" width="19" height="137"/>
	</g>
</g>
<g>
	<g>
		<rect x="214" y="271" class="st0" width="19" height="160"/>
	</g>
</g>
<g>
	<g>
		<rect x="57" y="380" class="st0" width="18" height="51"/>
	</g>
</g>
<g>
	<g>
		<rect x="292" y="213" class="st0" width="19" height="218"/>
	</g>
</g>
<g>
	<g>
		<rect x="371" y="161" class="st0" width="18" height="270"/>
	</g>
</g>
<g>
	<g>
		<path class="st0" d="M414.9,17.7c-2-1.7-4.5-2.7-7.2-2.7h-68.5c-5.5,0-10,4.5-10,10s4.5,10,10,10l44.2-0.1L275.3,143.1L237.4,105
			c-1.9-1.9-4.4-3-7.1-3.1c-2.7,0.1-5.2,1.2-7.1,3.1l-192,192.2c-4,3.8-4.1,10.2-0.3,14.2s10.2,4.1,14.2,0.3
			c0.1-0.1,0.2-0.2,0.3-0.2l185-185l37.9,37.8c1.9,1.8,4.4,2.8,7.1,2.8c2.6,0,5.2-1,7.1-2.8L397.8,49l-0.1,44.1
			c0,5.5,4.4,9.9,9.9,9.9h0.1c5.5,0.1,9.9-4.3,10-9.8c0,0,0,0,0-0.1l0.1-68.4C417.8,22.1,416.7,19.6,414.9,17.7z"/>
	</g>
</g>
</svg>
