<?xml version="1.0" encoding="utf-8"?>
<!-- Generator: Adobe Illustrator 24.2.3, SVG Export Plug-In . SVG Version: 6.00 Build 0)  -->
<svg version="1.1" id="Capa_1" xmlns="http://www.w3.org/2000/svg" xmlns:xlink="http://www.w3.org/1999/xlink" x="0px" y="0px"
	 viewBox="0 0 524 524" style="enable-background:new 0 0 524 524;" xml:space="preserve">
<style type="text/css">
	.st0{stroke:#000000;stroke-width:4;stroke-miterlimit:10;}
</style>
<g>
	<g>
		<path class="st0" d="M318,302h-8.8c-3.3,0-6.3-2.1-7.4-5.2c-1-2.6-2-5.1-3.1-7.5c-1.4-3-0.8-6.6,1.6-8.9l6.3-6.3
			c9.3-9.4,9.3-24.5,0-33.9l-22.6-22.6c-9.4-9.3-24.5-9.3-33.9,0l-6.3,6.3c-2.4,2.4-5.9,3-8.9,1.6c-2.5-1.1-5-2.2-7.6-3.2
			c-3.1-1.1-5.2-4.1-5.2-7.4V206c0-13.3-10.7-24-24-24h-32c-13.3,0-24,10.7-24,24v8.8c0,3.3-2.1,6.3-5.2,7.4c-2.6,1-5.1,2-7.5,3.1
			c-3,1.4-6.6,0.8-8.9-1.6l-6.3-6.3c-9.4-9.3-24.5-9.3-33.9,0l-22.6,22.7c-9.3,9.4-9.3,24.5,0,33.9l6.3,6.3c2.4,2.3,3,5.9,1.6,8.9
			c-1.1,2.5-2.2,5-3.2,7.5c-1.2,3.1-4.1,5.2-7.5,5.2H46c-13.3,0-24,10.7-24,24v32c0,13.3,10.7,24,24,24h8.8c3.3,0,6.3,2.1,7.4,5.2
			c1,2.6,2,5.1,3.2,7.5c1.4,3,0.8,6.6-1.6,8.9l-6.3,6.3c-9.3,9.4-9.3,24.5,0,33.9l22.6,22.6c9.4,9.3,24.5,9.3,33.9,0l6.3-6.3
			c2.3-2.4,5.9-3,8.9-1.6c2.5,1.1,5,2.2,7.6,3.2c3.1,1.1,5.2,4.1,5.2,7.4v8.8c0,13.3,10.8,24,24,24h32c13.3,0,24-10.7,24-24v-8.8
			c0-3.3,2.1-6.3,5.2-7.4c2.6-1,5.1-2,7.5-3.1c3-1.4,6.6-0.8,8.9,1.6l6.3,6.3c9.4,9.3,24.5,9.3,33.9,0l22.6-22.6
			c9.3-9.4,9.3-24.5,0-33.9l-6.3-6.3c-2.4-2.3-3-5.9-1.6-8.9c1.1-2.5,2.2-5,3.2-7.5c1.1-3.1,4.1-5.2,7.4-5.2h8.8
			c13.3,0,24-10.7,24-24v-32C342,312.7,331.3,302,318,302z M326,358c0,4.4-3.6,8-8,8h-8.8c-10,0-18.9,6.2-22.4,15.5
			c-0.9,2.2-1.8,4.5-2.8,6.6c-4.1,9.1-2.2,19.8,4.8,26.9l6.3,6.3c3.1,3.1,3.1,8.2,0,11.3c0,0,0,0,0,0l-22.6,22.6
			c-3.1,3.1-8.2,3.1-11.3,0l-6.3-6.3c-7.1-7-17.8-8.9-26.9-4.8c-2.2,1-4.4,1.9-6.6,2.8c-9.3,3.5-15.4,12.5-15.5,22.4v8.8
			c0,4.4-3.6,8-8,8h-32c-4.4,0-8-3.6-8-8v-8.8c0-10-6.2-18.9-15.5-22.4c-2.2-0.9-4.4-1.8-6.6-2.8c-9.1-4.1-19.7-2.2-26.8,4.8
			l-6.3,6.3c-3.1,3.1-8.2,3.1-11.3,0c0,0,0,0,0,0l-22.6-22.6c-3.1-3.1-3.1-8.2,0-11.3l6.3-6.3c7-7.1,8.9-17.8,4.8-26.9
			c-1-2.2-1.9-4.4-2.8-6.6c-3.5-9.3-12.4-15.5-22.4-15.5H46c-4.4,0-8-3.6-8-8v-32c0-4.4,3.6-8,8-8h8.8c9.9,0,18.8-6.2,22.4-15.5
			c0.8-2.2,1.8-4.5,2.8-6.6c4.1-9.1,2.2-19.8-4.8-26.9l-6.3-6.3c-3.1-3.1-3.1-8.2,0-11.3c0,0,0,0,0,0l22.6-22.6
			c3.1-3.1,8.2-3.1,11.3,0l6.3,6.3c7.1,7,17.8,8.9,26.8,4.8c2.2-1,4.4-1.9,6.6-2.8c9.3-3.5,15.4-12.4,15.5-22.4V206c0-4.4,3.6-8,8-8
			h32c4.4,0,8,3.6,8,8v8.8c0,9.9,6.2,18.9,15.5,22.4c2.2,0.9,4.4,1.8,6.6,2.8c9.1,4.1,19.8,2.2,26.9-4.8l6.3-6.3
			c3.1-3.1,8.2-3.1,11.3,0l22.6,22.6c3.1,3.1,3.1,8.2,0,11.3l-6.3,6.3c-7,7.1-8.9,17.8-4.8,26.8c1,2.2,1.9,4.4,2.8,6.6
			c3.5,9.3,12.5,15.4,22.4,15.5h8.8c4.4,0,8,3.6,8,8V358L326,358z"/>
	</g>
</g>
<g>
	<g>
		<path class="st0" d="M253.8,338.8c-0.1-1.9-0.2-3.8-0.4-5.7c-0.3-2-0.6-4.1-1-6.1c-0.3-1.3-0.6-2.6-1-3.9
			c-0.4-1.6-0.9-3.3-1.5-4.9c-0.4-1.1-0.8-2.2-1.2-3.3c-1-2.6-2.2-5.1-3.5-7.5c-0.1-0.2-0.2-0.4-0.3-0.6c-2.1-3.7-4.5-7.2-7.2-10.5
			c-0.2-0.3-0.5-0.6-0.7-0.8c-1.1-1.3-2.2-2.6-3.4-3.8c-0.6-0.6-1.3-1.3-1.9-1.9c-0.8-0.7-1.6-1.5-2.4-2.2c-1-0.8-2-1.7-3-2.5
			l-1.3-1C212.5,275,197.5,270,182,270c-0.8,0-1.6,0.1-2.4,0.1c-1.7,0.1-3.4,0.1-5.1,0.3c-0.9,0.1-1.8,0.2-2.7,0.3
			c-2.6,0.3-5.2,0.8-7.8,1.5c-38.5,10-61.7,49.2-51.7,87.8c6.6,25.4,26.4,45.2,51.8,51.7c0.1,0,0.3,0,0.4,0.1
			c2.8,0.7,5.6,1.2,8.4,1.6c1.9,0.2,3.7,0.3,5.6,0.4c1.2,0.1,2.4,0.2,3.7,0.2c2.3,0,4.6-0.1,7.1-0.4c0.3,0,0.5-0.1,0.8-0.1
			c1.9-0.2,3.9-0.5,5.9-0.9c0.8-0.1,1.5-0.4,2.3-0.5c1.4-0.3,2.8-0.7,4.2-1.1c1.1-0.3,2.2-0.7,3.3-1.1c1.1-0.4,2.2-0.8,3.4-1.2
			s2.1-0.9,3.1-1.4c1.3-0.6,2.7-1.2,4-1.9h0.1c7.5-4,14.4-9,20.5-14.8c1.7-1.5,3.1-3.3,4.3-5.2c6.2-10,10.4-21.2,12.1-32.9
			c0.2-1.5,0.4-3.1,0.5-4.7c0.1-1.5,0.2-2.9,0.2-4.3c0-0.5,0.1-0.9,0.1-1.3C254,340.9,253.9,339.9,253.8,338.8z M237.9,344
			c0,0.7-0.1,1.3-0.1,2c-0.1,1.9-0.4,3.9-0.7,5.8c-3,16.6-13.3,31-28.1,39.2c-1,0.5-2,1-2.9,1.5l-0.7,0.3c-4.6,2.1-9.6,3.6-14.6,4.4
			c-0.4,0.1-0.7,0.1-1.1,0.2c-1,0.1-2,0.3-3,0.4c-1.3,0.1-2.6,0.2-3.9,0.2c-0.6,0-1.1,0-1.7,0c-1.9,0-3.8-0.1-5.7-0.4l-1-0.1
			c-2.2-0.3-4.4-0.7-6.5-1.2c-30-7.7-48-38.2-40.4-68.1c5.1-19.8,20.5-35.3,40.3-40.4v0c4.6-1.2,9.3-1.8,14.1-1.8
			c2.3,0,4.6,0.2,6.8,0.5c0.6,0.1,1.2,0.2,1.8,0.3c1.7,0.3,3.4,0.6,5.1,1c0.6,0.1,1.1,0.3,1.6,0.4c4.2,1.2,8.4,3,12.2,5.1
			c0.6,0.4,1.2,0.7,1.8,1.1c1.3,0.8,2.5,1.6,3.7,2.5c0.6,0.5,1.3,0.9,1.9,1.4c1.6,1.2,3.1,2.6,4.5,4c0.6,0.6,1.1,1.2,1.6,1.8
			c0.9,1,1.8,2,2.7,3.1c0.6,0.7,1.2,1.5,1.7,2.3c0.8,1.1,1.6,2.4,2.3,3.6c0.4,0.7,0.8,1.3,1.2,2c1,1.9,1.9,3.9,2.8,5.9
			c0.3,0.8,0.6,1.6,0.9,2.4c0.5,1.5,1,3,1.4,4.5c0.2,0.8,0.4,1.5,0.6,2.3c0.5,2.2,0.8,4.4,1,6.5c0.1,0.6,0.1,1.2,0.1,1.8
			C237.9,340.3,238,342.2,237.9,344z"/>
	</g>
</g>
<g>
	<g>
		<path class="st0" d="M478,190h-25.2c-3.4,0-6.4-2.1-7.5-5.2c-2.5-7.4-5.5-14.7-9-21.7c-1.5-3-0.9-6.7,1.5-9l17.8-17.9
			c9.4-9.4,9.4-24.6,0-33.9l-34-34c-9.4-9.4-24.6-9.4-33.9,0L370,86.1c-2.4,2.4-6,3-9,1.5c-7-3.5-14.3-6.5-21.7-9
			c-3.2-1.1-5.3-4.1-5.3-7.5V46c0-13.3-10.7-24-24-24h-48c-13.3,0-24,10.7-24,24v25.2c0,3.3-2.1,6.4-5.2,7.5
			c-7.4,2.5-14.7,5.5-21.7,9c-3,1.5-6.7,0.9-9-1.5l-17.9-17.8c-9.4-9.3-24.6-9.3-33.9,0l-33.9,34c-9.4,9.4-9.4,24.6,0,33.9
			l26.2,26.3c3.2,3.1,8.2,3,11.3-0.2c3-3.1,3-8,0-11.1l-26.2-26.3c-3.1-3.1-3.1-8.2,0-11.3l33.9-33.9c3.1-3.1,8.2-3.1,11.3,0
			l17.9,17.8c7.2,7.3,18.3,9.1,27.5,4.5c6.3-3.2,12.9-5.9,19.6-8.2c9.7-3.3,16.2-12.4,16.2-22.6V46c0-4.4,3.6-8,8-8h48
			c4.4,0,8,3.6,8,8v25.2c0,10.2,6.5,19.3,16.2,22.6c6.7,2.3,13.3,5,19.6,8.2c9.2,4.6,20.2,2.7,27.5-4.5l17.9-17.8
			c3.1-3.1,8.2-3.1,11.3,0l34,34c3.1,3.1,3.1,8.2,0,11.3l-17.8,17.9c-7.3,7.2-9.1,18.3-4.5,27.5c3.2,6.3,5.9,12.9,8.1,19.6
			c3.3,9.7,12.4,16.2,22.6,16.2H478c4.4,0,8,3.6,8,8v48c0,4.4-3.6,8-8,8h-25.2c-10.2,0-19.4,6.5-22.6,16.2c-2.3,6.7-5,13.3-8.2,19.6
			c-4.6,9.2-2.7,20.2,4.5,27.5l17.8,17.9c3.1,3.1,3.1,8.2,0,11.3l-34,34c-3.1,3.1-8.2,3.1-11.3,0l-26.3-26.2
			c-3.1-3.2-8.1-3.2-11.3-0.2c-3.2,3.1-3.2,8.1-0.2,11.3c0.1,0.1,0.1,0.1,0.2,0.2l26.3,26.2c9.4,9.4,24.6,9.4,33.9,0l34-33.9
			c9.4-9.4,9.4-24.6,0-33.9L437.9,322c-2.4-2.4-3-6-1.5-9c3.5-7,6.5-14.3,9-21.7c1.1-3.2,4.1-5.3,7.5-5.3H478c13.3,0,24-10.7,24-24
			v-48C502,200.7,491.3,190,478,190z"/>
	</g>
</g>
<g>
	<g>
		<path class="st0" d="M359.5,164.5c-40.6-40.6-106.4-40.6-147.1,0c-3.1,3.2-3,8.2,0.2,11.3c3.1,3,8,3,11.1,0
			c34.1-34.6,89.8-35,124.4-0.8s35,89.9,0.8,124.5c-0.3,0.3-0.5,0.6-0.8,0.8c-3.2,3.1-3.3,8.1-0.2,11.3c3.1,3.2,8.1,3.3,11.3,0.2
			c0.1-0.1,0.1-0.1,0.2-0.2C400.1,270.9,400.1,205.1,359.5,164.5z"/>
	</g>
</g>
</svg>
