<?xml version="1.0" encoding="utf-8"?>
<!-- Generator: Adobe Illustrator 24.2.3, SVG Export Plug-In . SVG Version: 6.00 Build 0)  -->
<svg version="1.1" id="Capa_1" xmlns="http://www.w3.org/2000/svg" xmlns:xlink="http://www.w3.org/1999/xlink" x="0px" y="0px"
	 viewBox="0 0 313 313" style="enable-background:new 0 0 313 313;" xml:space="preserve">
<style type="text/css">
	.st0{fill:none;stroke:#49B3FD;stroke-width:11;stroke-miterlimit:10;}
</style>
<g>
	<path class="st0" d="M172.1,150.4c3.4-1.7,7.1-2.6,11-2.6c6.5,0,12.5,2.5,17.1,7.1l9.9-9.9c24.4,8.6,52.7,3.1,72.2-16.4
		c16.4-16.4,22.9-39,19.4-60.3c-0.4-2.3-2-4.3-4.3-5c-2.3-0.7-4.7-0.1-6.4,1.5l-14.7,14.7c-11.9,11.9-31.3,11.9-43.2,0
		s-11.9-31.3,0-43.2l14.7-14.7c1.7-1.7,2.3-4.2,1.5-6.4c-0.7-2.3-2.7-3.9-5-4.3c-21.3-3.5-43.9,3-60.3,19.4
		c-19.8,19.8-25.1,48.6-16,73.3L146.6,125L172.1,150.4z"/>
	<path class="st0" d="M133.1,189.2l-25.4-25.4L19,252.6c-11.5,11.5-11.5,30.3,0,41.8s30.3,11.5,41.8,0l76.5-76.5
		C129.6,210.1,128.2,198.4,133.1,189.2z"/>
	<path class="st0" d="M189.7,165.5c-1.8-1.8-4.2-2.7-6.6-2.7s-4.8,0.9-6.6,2.7l-5.3,5.3L76.9,76.4l4.4-4.4c4-4,3.5-10.7-1.1-14.1
		L41.7,29.6c-3.7-2.7-8.8-2.3-12.1,0.9L13.3,46.9c-3.2,3.2-3.6,8.4-0.9,12.1l28.4,38.5c3.4,4.6,10,5.1,14.1,1.1l4.4-4.4l94.4,94.4
		l-5.7,5.7c-3.6,3.6-3.6,9.5,0,13.1l87.1,87.1c11.5,11.5,30.3,11.5,41.8,0s11.5-30.3,0-41.8L189.7,165.5z"/>
</g>
</svg>
